<?xml version="1.0" encoding="UTF-8"?> <svg xmlns="http://www.w3.org/2000/svg" width="34" height="33" viewBox="0 0 34 33" fill="none"><g clip-path="url(#clip0_1994_1562)"><path d="M29.5013 0H4.49868C2.01416 0 0 1.95492 0 4.36636V28.6336C0 31.0451 2.01416 33 4.49868 33H14.0206V21.5394H9.66944V16.7308H14.0206V13.0664C14.0206 8.89734 16.5794 6.59479 20.494 6.59479C22.3691 6.59479 24.3306 6.91992 24.3306 6.91992V11.0133H22.1694C20.041 11.0133 19.3768 12.2954 19.3768 13.6108V16.7303H24.1294L23.3693 21.5389H19.3763V32.9995H29.5008C31.9853 32.9995 33.9995 31.0446 33.9995 28.6331V4.36636C33.9995 1.95492 31.9853 0 29.5008 0H29.5013Z" fill="white"></path></g><defs><clipPath id="clip0_1994_1562"><rect width="34" height="33" rx="5" fill="white"></rect></clipPath></defs></svg> 