<?xml version="1.0" encoding="UTF-8"?> <svg xmlns="http://www.w3.org/2000/svg" width="34" height="33" viewBox="0 0 34 33" fill="none"><g clip-path="url(#clip0_1994_1547)"><path d="M21.3025 8.0083H12.6975C10.2456 8.0083 8.25098 9.94379 8.25098 12.3235V20.6759C8.25098 23.0557 10.2456 24.9917 12.6975 24.9917H21.3025C23.7543 24.9917 25.749 23.0557 25.749 20.6759V12.3235C25.749 9.94379 23.7543 8.0083 21.3025 8.0083ZM17.0887 21.6518C14.1618 21.6518 11.781 19.3406 11.781 16.5002C11.781 13.6599 14.1623 11.3486 17.0887 11.3486C20.0152 11.3486 22.3964 13.6599 22.3964 16.5002C22.3964 19.3406 20.0152 21.6518 17.0887 21.6518ZM22.7062 12.2285C22.0083 12.2285 21.4426 11.6794 21.4426 11.002C21.4426 10.3247 22.0083 9.7756 22.7062 9.7756C23.404 9.7756 23.9697 10.3247 23.9697 11.002C23.9697 11.6794 23.404 12.2285 22.7062 12.2285Z" fill="white"></path><path d="M17.0887 13.1998C15.2136 13.1998 13.6887 14.6803 13.6887 16.4998C13.6887 18.3192 15.2141 19.7997 17.0887 19.7997C18.9632 19.7997 20.4886 18.3192 20.4886 16.4998C20.4886 14.6803 18.9632 13.1998 17.0887 13.1998Z" fill="white"></path><path d="M29.5013 0H4.49868C2.01416 0 0 1.95492 0 4.36636V28.6336C0 31.0451 2.01416 33 4.49868 33H29.5013C31.9858 33 34 31.0451 34 28.6336V4.36636C34 1.95492 31.9858 0 29.5013 0ZM27.7769 20.6759C27.7769 24.1405 24.8725 26.9594 21.3025 26.9594H12.6975C9.12798 26.9594 6.22367 24.1405 6.22367 20.6759V12.3236C6.22367 8.85848 9.12798 6.04011 12.6975 6.04011H21.3025C24.872 6.04011 27.7769 8.859 27.7769 12.3236V20.6759Z" fill="white"></path></g><defs><clipPath id="clip0_1994_1547"><rect width="34" height="33" rx="5" fill="white"></rect></clipPath></defs></svg> 