<?xml version="1.0" encoding="UTF-8"?> <svg xmlns="http://www.w3.org/2000/svg" width="70" height="70" viewBox="0 0 70 70" fill="none"><g filter="url(#filter0_d_25_25)"><rect x="4" width="62" height="62" rx="8" fill="#25D366"></rect></g><path d="M33.603 6.57556C29.509 6.842 25.2102 8.31887 21.8137 10.6255C18.2276 13.0616 15.3846 16.3503 13.5423 20.1871C12.5339 22.2882 11.9047 24.2675 11.4725 26.7036C11.1465 28.5306 11.0783 31.2865 11.3057 33.4028C11.609 36.2499 12.6476 39.6604 14.0502 42.4467L14.4521 43.2308L13.5195 46.0247C13.004 47.5625 12.0715 50.3639 11.4422 52.2519C10.8053 54.1475 10.2898 55.7461 10.2898 55.8223C10.2898 55.8908 10.3884 55.9897 10.5097 56.0354C10.7068 56.1115 10.7295 56.142 10.6916 56.378C10.6461 56.6216 10.6537 56.6368 10.8281 56.5835C11.1389 56.4846 17.9244 54.3149 20.7902 53.3862C22.2913 52.9066 23.5802 52.5107 23.656 52.5107C23.7243 52.5107 24.0503 52.6401 24.3763 52.8076C27.1511 54.2084 30.1079 55.0458 33.2542 55.335C34.4976 55.4416 37.0298 55.3883 38.2504 55.2132C45.4832 54.2084 51.6394 50.1965 55.4302 44.0378C56.666 42.028 57.8411 39.2265 58.4704 36.7905C59.0693 34.4533 59.3574 31.5529 59.1982 29.3148C58.7888 23.3692 56.4992 18.1012 52.5189 13.9599C48.6599 9.94799 43.7471 7.46624 38.1519 6.71259C37.3331 6.60601 34.4976 6.51466 33.603 6.57556ZM36.5674 11.7827C39.274 12.0034 41.4953 12.6048 43.838 13.7544C47.0147 15.3226 49.6758 17.6673 51.647 20.6515C53.1633 22.9429 54.0958 25.4094 54.4597 28.1043C54.6341 29.3833 54.6341 31.9716 54.4597 33.281C53.224 42.4848 45.6576 49.5798 36.4764 50.1584C33.2391 50.3563 30.2292 49.8234 27.2876 48.5293C26.4763 48.1715 25.1344 47.4406 24.7174 47.1361C24.5885 47.0372 24.4218 46.9534 24.3459 46.9534C24.2777 46.9534 22.6628 47.4483 20.7675 48.0573C18.8721 48.6663 17.3103 49.1611 17.3027 49.1459C17.2875 49.1307 17.7728 47.6462 18.3717 45.8496C18.9706 44.0454 19.4634 42.4848 19.4634 42.363C19.4634 42.2412 19.327 41.9595 19.1298 41.6778C15.9608 37.1178 14.9297 30.8221 16.4687 25.4856C16.8099 24.3284 17.0904 23.6204 17.6439 22.5166C19.1602 19.54 21.4725 16.9441 24.3156 15.0409C27.9017 12.6353 32.3824 11.4477 36.5674 11.7827Z" fill="white"></path><path d="M26.537 18.8168C26.3626 18.8701 26.1124 18.9919 25.9684 19.0756C25.5817 19.3192 24.4596 20.5221 24.1109 21.0702C22.9964 22.8135 22.7462 25.1354 23.4134 27.404C23.9213 29.1168 24.543 30.4262 25.6803 32.1924C27.1207 34.4153 28.0533 35.6181 29.5468 37.1635C31.791 39.4853 33.6788 40.7871 36.5749 41.9975C38.7129 42.8958 40.2899 43.4059 41.1769 43.4973C41.791 43.5582 43.1329 43.345 43.9214 43.0557C45.0131 42.6599 46.2641 41.7768 46.7493 41.0612C47.2345 40.3304 47.7349 38.6784 47.7956 37.5822L47.841 36.859L47.606 36.5849C47.4392 36.4022 46.7569 35.9911 45.3771 35.2451C42.1018 33.4789 41.6849 33.3114 41.1693 33.5855C41.0404 33.6464 40.5552 34.1412 40.1003 34.6741C38.7508 36.2499 38.4703 36.524 38.2428 36.524C37.9547 36.524 36.0669 35.5572 35.1875 34.9634C34.164 34.263 33.4968 33.6997 32.6553 32.8242C31.6545 31.7813 30.5703 30.2892 29.9638 29.1244L29.8273 28.8504L30.3732 28.249C31.0935 27.4801 31.3891 27.0157 31.6772 26.2088C31.9729 25.3866 31.9578 25.1354 31.5256 24.0011C31.139 22.9886 30.8281 22.1512 30.2898 20.6971C29.8501 19.502 29.5241 19.0147 29.0692 18.8701C28.6371 18.7407 26.8933 18.7026 26.537 18.8168Z" fill="white"></path><defs><filter id="filter0_d_25_25" x="0" y="0" width="70" height="70" filterUnits="userSpaceOnUse" color-interpolation-filters="sRGB"><feFlood flood-opacity="0" result="BackgroundImageFix"></feFlood><feColorMatrix in="SourceAlpha" type="matrix" values="0 0 0 0 0 0 0 0 0 0 0 0 0 0 0 0 0 0 127 0" result="hardAlpha"></feColorMatrix><feOffset dy="4"></feOffset><feGaussianBlur stdDeviation="2"></feGaussianBlur><feComposite in2="hardAlpha" operator="out"></feComposite><feColorMatrix type="matrix" values="0 0 0 0 0.0196078 0 0 0 0 0.509804 0 0 0 0 0.47451 0 0 0 1 0"></feColorMatrix><feBlend mode="normal" in2="BackgroundImageFix" result="effect1_dropShadow_25_25"></feBlend><feBlend mode="normal" in="SourceGraphic" in2="effect1_dropShadow_25_25" result="shape"></feBlend></filter></defs></svg> 