<?xml version="1.0" encoding="UTF-8"?> <svg xmlns="http://www.w3.org/2000/svg" width="34" height="33" viewBox="0 0 34 33" fill="none"><g clip-path="url(#clip0_1994_1553)"><path d="M29.5013 0H4.49868C2.01416 0 0 1.95492 0 4.36636V28.6336C0 31.0451 2.01416 33 4.49868 33H29.5013C31.9858 33 34 31.0451 34 28.6336V4.36636C34 1.95492 31.9858 0 29.5013 0ZM17.0003 27.3817C10.8082 27.3817 5.7886 22.5097 5.7886 16.4997C5.7886 10.4898 10.8082 5.61784 17.0003 5.61784C23.1923 5.61784 28.2119 10.4898 28.2119 16.4997C28.2119 22.5097 23.1923 27.3817 17.0003 27.3817Z" fill="white"></path><path d="M21.3215 20.8493C21.1951 21.0589 20.9681 21.176 20.7347 21.176C20.6183 21.176 20.5003 21.1469 20.3929 21.086C18.6084 20.0738 16.5468 19.9112 15.1315 19.9532C13.5635 19.9997 12.4137 20.2998 12.4026 20.3028C12.0413 20.3989 11.6679 20.1924 11.5683 19.8417C11.4693 19.491 11.681 19.1286 12.0423 19.0319C12.0945 19.0181 13.3312 18.692 15.052 18.6368C16.0654 18.6046 17.0409 18.6731 17.9516 18.8407C19.1045 19.0529 20.1564 19.4256 21.0781 19.9486C21.4021 20.1321 21.5111 20.536 21.322 20.8498L21.3215 20.8493Z" fill="white"></path><path d="M22.5841 18.3044C22.4345 18.5528 22.1654 18.6914 21.8888 18.6914C21.7508 18.6914 21.6113 18.6571 21.4838 18.5845C19.3701 17.3857 16.9282 17.193 15.2517 17.2426C13.3945 17.2973 12.0324 17.6531 12.0187 17.6566C11.5905 17.7701 11.1481 17.5258 11.0306 17.1101C10.9131 16.6945 11.1644 16.2656 11.5921 16.1511C11.6537 16.1347 13.119 15.7482 15.1574 15.6828C16.3578 15.6445 17.5134 15.7258 18.5921 15.9241C19.9579 16.1756 21.2041 16.6168 22.2955 17.2359C22.6789 17.4537 22.808 17.9317 22.5841 18.3039V18.3044Z" fill="white"></path><path d="M23.3599 15.9906C23.1908 15.9906 23.0196 15.9482 22.8632 15.8597C17.8383 13.0092 11.3197 14.7039 11.2544 14.7212C10.7287 14.8618 10.1857 14.5623 10.0413 14.0526C9.8965 13.5429 10.2052 13.0153 10.7303 12.8752C10.8056 12.8553 12.6033 12.3814 15.1031 12.3011C16.5758 12.2541 17.9932 12.3538 19.3163 12.5971C20.9918 12.9054 22.5203 13.4468 23.8587 14.2064C24.329 14.4733 24.4876 15.0597 24.2126 15.5162C24.0293 15.8209 23.6991 15.9906 23.3599 15.9906Z" fill="white"></path></g><defs><clipPath id="clip0_1994_1553"><rect width="34" height="33" rx="5" fill="white"></rect></clipPath></defs></svg> 