<?xml version="1.0" encoding="UTF-8"?> <svg xmlns="http://www.w3.org/2000/svg" width="33" height="33" viewBox="0 0 33 33" fill="none"><g clip-path="url(#clip0_1994_1551)"><path d="M28.6336 0H4.36636C1.95492 0 0 1.95492 0 4.36636V28.6336C0 31.0451 1.95492 33 4.36636 33H28.6336C31.0451 33 33 31.0451 33 28.6336V4.36636C33 1.95492 31.0451 0 28.6336 0ZM23.8389 14.437C23.8389 14.437 21.1744 14.0285 19.949 12.6104V19.4224C19.949 19.4224 19.7557 24.9881 14.1251 24.9881C9.50467 24.9881 8.60236 20.1959 8.60236 19.0998C8.60236 18.5196 8.98936 13.663 15.3071 13.663V16.65C15.3071 16.65 11.5894 16.1772 11.6109 19.4224C11.6222 21.0997 13.072 22.001 14.4262 22.001C15.7805 22.001 16.8975 20.9908 16.8975 18.8636V8.01139H19.8631C19.8631 8.01139 21.6682 11.6216 24.3976 11.5572C24.1185 12.9754 23.8389 14.437 23.8389 14.437Z" fill="white"></path></g><defs><clipPath id="clip0_1994_1551"><rect width="33" height="33" rx="5" fill="white"></rect></clipPath></defs></svg> 