<?xml version="1.0" encoding="UTF-8"?> <svg xmlns="http://www.w3.org/2000/svg" width="33" height="33" viewBox="0 0 33 33" fill="none"><g clip-path="url(#clip0_1994_1559)"><path d="M28.6336 0H4.36636C1.95492 0 0 1.95492 0 4.36636V28.6336C0 31.0451 1.95492 33 4.36636 33H28.6336C31.0451 33 33 31.0451 33 28.6336V4.36636C33 1.95492 31.0451 0 28.6336 0ZM26.8807 18.5232C26.7666 20.268 26.6751 20.8855 26.4159 21.5256C26.2559 21.93 26.1189 22.1431 25.8822 22.3793C25.5111 22.7428 25.0377 22.9851 24.5254 23.0731C21.3201 23.3138 18.5983 23.3665 15.5095 23.3169C11.8057 23.2489 10.5404 23.1876 9.76284 23.027C9.23679 22.9207 8.77975 22.684 8.44439 22.3415C8.1852 22.0823 7.97918 21.6861 7.81968 21.1371C7.68267 20.6795 7.62899 20.2986 7.55282 19.3687C7.43626 17.2702 7.40865 15.5545 7.55282 13.6374C7.67193 12.5787 7.7297 11.3221 8.52057 10.589C8.89427 10.2459 9.3283 10.0251 9.81652 9.93359C10.5788 9.78891 13.8255 9.6744 17.1863 9.6744C20.5471 9.6744 23.7939 9.78891 24.5566 9.93359C25.166 10.0481 25.7376 10.3906 26.0734 10.8328C26.7953 11.9683 26.8075 13.3797 26.8812 14.484C26.9113 15.01 26.9113 17.9976 26.8812 18.5237L26.8807 18.5232Z" fill="white"></path><path d="M15.1819 13.5541V19.0262C17.0141 18.0304 18.9455 17.1173 20.4148 16.3035C18.6326 15.3511 16.9262 14.4682 15.1819 13.5536V13.5541Z" fill="white"></path></g><defs><clipPath id="clip0_1994_1559"><rect width="33" height="33" rx="5" fill="white"></rect></clipPath></defs></svg> 