<svg width="60" height="60" viewBox="0 0 60 60" fill="none" xmlns="http://www.w3.org/2000/svg">
<g clip-path="url(#clip0_1294_4044)">
<path d="M4.4862 30.7593L0.746409 31.1332L0.917461 32.8856L0.248807 32.9557L0 30.4634L4.40845 30.0194L4.4862 30.7671V30.7593Z" fill="white"/>
<path d="M2.23132 36.4915L1.81925 34.9182L0.590789 34.7157L0.380859 33.8979L5.45019 34.817L1.47714 38.1037L1.26721 37.2859L2.23909 36.4993L2.23132 36.4915ZM2.4879 34.965L2.79113 36.1332L3.99625 35.1908L2.4879 34.965Z" fill="white"/>
<path d="M8.14834 41.959L8.56042 42.7223L3.41333 43.0105L6.51558 38.8904L6.91988 39.6536L4.78952 42.2706L8.14834 41.9512V41.959Z" fill="white"/>
<path d="M9.36905 43.7893L5.72255 46.3127L5.29492 45.6896L8.94142 43.1662L9.36905 43.7893ZM9.39237 42.9871L9.36128 42.5509L10.7297 42.7534L10.8152 43.3843L9.3846 42.9871H9.39237Z" fill="white"/>
<path d="M7.54173 48.6259L6.62427 47.5511L9.98309 44.6538L10.8539 45.6663C11.3981 46.2972 11.507 46.9748 10.9316 47.4732C10.5973 47.7614 10.193 47.7692 9.78872 47.5433C10.0297 48.0574 10.022 48.587 9.54768 48.992C8.87903 49.5683 8.14818 49.3269 7.54173 48.6181V48.6259ZM7.9849 48.1898C8.31145 48.5714 8.73908 48.696 9.11228 48.3767C9.47771 48.0651 9.41551 47.629 9.08118 47.2474L8.67688 46.7801L7.58059 47.7302L7.9849 48.1976V48.1898ZM9.99863 45.6274L9.12006 46.3906L9.46994 46.7956C9.73429 47.1072 10.0842 47.1928 10.3718 46.9514C10.6517 46.71 10.6206 46.3517 10.3563 46.0402L10.0064 45.6352L9.99863 45.6274Z" fill="white"/>
<path d="M13.5518 48.4079C14.2749 49.0387 14.3993 49.8643 13.8551 50.4952C13.4352 50.9859 12.8443 51.0949 12.2612 50.8301L12.059 52.9797L11.3748 52.3878L11.6236 50.3861L11.2815 50.0902L10.1853 51.3597L9.61768 50.869L12.5178 47.5122L13.5518 48.4079ZM12.6577 48.4936L11.6858 49.6229L12.129 50.0123C12.5178 50.3472 12.9454 50.3706 13.2564 50.0123C13.5674 49.654 13.4896 49.2257 13.1009 48.8908L12.6577 48.5013V48.4936Z" fill="white"/>
<path d="M16.1178 50.355L13.622 54.0156L12.9922 53.5872L15.488 49.9266L16.1178 50.355Z" fill="white"/>
<path d="M17.6882 55.0203L16.242 54.2804L15.2779 55.067L14.5315 54.6854L18.5823 51.4999L18.3957 56.6558L17.6415 56.2664L17.7037 55.0203H17.6882ZM16.7163 53.813L17.7892 54.366L17.8825 52.8395L16.7085 53.8208L16.7163 53.813Z" fill="white"/>
<path d="M23.5818 53.6417L22.4467 57.9254L21.7158 57.7307L22.851 53.447L23.5818 53.6417Z" fill="white"/>
<path d="M28.5033 54.4361L27.9201 59.0547L25.1133 55.472L24.7401 58.4238L24.0093 58.3303L24.5924 53.7118L27.3992 57.2945L27.7724 54.3427L28.5033 54.4361Z" fill="white"/>
<path d="M29.0554 54.4284L32.1421 54.3583L32.1576 55.0514L30.9836 55.0748L31.0691 58.8211L30.3227 58.8366L30.2372 55.0904L29.0632 55.1138L29.0476 54.4206L29.0554 54.4284Z" fill="white"/>
<path d="M35.3998 53.891L35.5009 54.5452L33.5649 54.8334L33.7282 55.9004L35.5397 55.6278L35.633 56.2665L33.8215 56.5391L34.0314 57.9176L35.9674 57.6294L36.0684 58.2837L33.4016 58.6809L32.7407 54.296L35.4076 53.8988L35.3998 53.891Z" fill="white"/>
<path d="M37.608 53.2912C38.5254 53.0109 39.2952 53.3458 39.5362 54.1402C39.7228 54.7555 39.5051 55.3162 38.9686 55.6745L40.6791 56.9908L39.8161 57.2556L38.2533 55.9783L37.8179 56.1107L38.3077 57.7151L37.5924 57.9332L36.3018 53.6884L37.608 53.2912ZM37.2037 54.0935L37.6391 55.5187L38.1989 55.3474C38.6887 55.1994 38.9375 54.8411 38.7976 54.3894C38.6576 53.9377 38.2533 53.7741 37.7635 53.9221L37.2037 54.0935Z" fill="white"/>
<path d="M43.4159 54.9969C43.9757 54.7165 44.2634 54.2648 44.3722 53.8053L44.7688 54.6075C44.5744 55.0437 44.2945 55.3708 43.7191 55.6589C42.5529 56.2431 41.2467 55.8459 40.6402 54.6387C40.0338 53.4314 40.5003 52.1386 41.6665 51.5544C42.2419 51.2663 42.6695 51.2351 43.1438 51.3441L43.5403 52.1386C43.1049 51.9516 42.584 51.9205 42.0242 52.2009C41.3011 52.5669 40.9512 53.4314 41.3711 54.2804C41.7909 55.1215 42.7006 55.363 43.4237 55.0047L43.4159 54.9969Z" fill="white"/>
<path d="M44.2789 50.0824L46.0361 52.4501C46.3626 52.8863 46.8213 53.0031 47.2723 52.6682C47.731 52.3255 47.7466 51.8582 47.4278 51.4143L45.6706 49.0466L46.2771 48.5948L48.0498 50.9859C48.6329 51.7725 48.4463 52.6448 47.6844 53.2134C46.9224 53.782 46.036 53.7041 45.4607 52.9174L43.688 50.5264L44.2867 50.0824H44.2789Z" fill="white"/>
<path d="M47.5055 47.4031L50.1568 50.0668L51.4008 48.8206L51.8751 49.2957L50.1024 51.0637L46.9768 47.9172L47.5055 47.3876V47.4031Z" fill="white"/>
<path d="M48.5786 46.3595L50.5223 43.9607L51.0588 44.3968L50.3202 45.3081L53.2203 47.668L52.746 48.2443L49.8459 45.8844L49.1073 46.7957L48.5708 46.3595H48.5786Z" fill="white"/>
<path d="M51.222 42.8781L53.7334 44.4046C54.1999 44.685 54.6664 44.6227 54.9618 44.132C55.2573 43.6413 55.094 43.1974 54.6353 42.917L52.124 41.3905L52.5127 40.744L55.0551 42.2861C55.8871 42.7924 56.0426 43.6725 55.5528 44.4825C55.0629 45.2925 54.2154 45.5573 53.3835 45.051L50.8411 43.5089L51.2298 42.8703L51.222 42.8781Z" fill="white"/>
<path d="M53.4767 38.6178C53.8499 37.7299 54.6041 37.3639 55.366 37.6832C55.9569 37.9324 56.2446 38.462 56.1746 39.1007L58.2817 38.6334L57.9318 39.4668L55.9492 39.8406L55.7703 40.2612L57.3098 40.9154L57.0221 41.6008L52.948 39.8718L53.4845 38.61L53.4767 38.6178ZM53.8266 39.4434L55.195 40.0275L55.4282 39.4823C55.6304 39.0072 55.5138 38.5944 55.0784 38.4075C54.643 38.2206 54.2542 38.4309 54.0598 38.906L53.8266 39.4512V39.4434Z" fill="white"/>
<path d="M58.173 34.7703L57.7687 36.3513L58.7483 37.1224L58.5384 37.9402L54.5498 34.6846L59.6114 33.7422L59.4014 34.5678L58.173 34.7858V34.7703ZM57.2089 35.9853L57.5043 34.817L55.996 35.0584L57.2089 35.9931V35.9853Z" fill="white"/>
<path d="M55.4127 31.3667L59.1525 31.7484L59.3313 29.996L60 30.0661L59.7434 32.5662L55.335 32.1144L55.4127 31.3667Z" fill="white"/>
<path d="M11.8181 24.4428C11.8181 24.4428 11.8569 24.4818 11.9036 24.4662C12.1757 23.5316 12.7044 22.1141 13.6452 20.7745L13.3809 16.8179L14.6249 15.93L14.8348 19.3803C15.1924 19.0376 15.5812 18.7261 16.0166 18.4457C16.4053 18.1965 16.8096 17.9862 17.2217 17.8148L17.8359 14.6216L19.1655 14.3957C18.9633 15.4316 18.7456 16.5453 18.5668 17.4098C19.4843 17.2229 20.4561 17.2151 21.4591 17.3709L22.7886 14.5593L24.0793 14.902L22.7576 17.6746C23.6284 17.955 24.3514 18.36 24.9657 18.8741L26.9094 16.4129L27.8347 17.2229L25.8131 19.7464C26.3185 20.3695 26.7073 21.086 27.0183 21.8648L29.794 19.9255L30.3771 21.1795L27.4459 23.2044C27.6481 23.9755 27.788 24.7855 27.8813 25.6267L31.3179 24.7543L31.5045 26.2342L28.0213 27.1532C28.1068 28.633 28.1068 30.1284 28.099 31.5459C28.0835 34.194 28.0757 36.9355 28.6044 38.7891C29.0787 40.4403 29.7473 40.7908 30.8203 40.8531C34.4046 41.0712 35.252 37.2392 35.8896 28.0099C36.3639 21.0315 36.8615 13.8116 41.9386 11.2725C42.063 11.2102 42.304 11.109 42.3351 11.0934C38.8052 8.62447 34.5056 7.19139 29.8795 7.22254C21.7079 7.28485 14.6404 11.9034 11.0483 18.6482L11.8103 24.4506L11.8181 24.4428Z" fill="white"/>
<path d="M46.829 15.2992C45.4995 15.2992 44.6053 15.4783 44.1388 15.7042C41.5964 16.9737 41.1843 23.0175 40.8189 28.3448C40.5468 32.3325 40.2669 36.4604 39.1239 39.6459C37.3279 44.6538 33.9069 45.8065 31.139 45.8065C30.9368 45.8065 30.7347 45.8065 30.5325 45.791C28.1845 45.6508 25.1211 44.5604 23.8538 40.1443C23.1307 37.6131 23.1384 34.5133 23.154 31.5147C23.1773 26.4367 23.0374 22.8072 21.047 22.3244C19.7952 22.0206 19.1188 22.3244 18.7145 22.5892C17.7892 23.1811 17.1828 24.3649 16.8329 25.2995L18.2013 26.9663C18.2402 27.0286 18.2324 27.1065 18.178 27.1688C16.102 29.4508 15.4178 35.1286 15.2157 37.4885C15.1846 37.8545 14.0339 37.8779 13.8162 37.5819L12.9065 36.3825C12.7743 36.2112 12.6888 36.0087 12.6499 35.7984L11.6314 30.2296C11.6081 30.1128 11.4759 30.0505 11.3748 30.105L10.504 30.5801C10.3796 30.6502 10.2319 30.549 10.2396 30.4088L10.5818 25.6578C10.5818 25.6578 10.5818 25.6344 10.5818 25.6267L10.0142 20.9069C9.0423 23.3914 8.51359 26.1018 8.52914 28.9367C8.62244 40.8375 18.3335 50.4173 30.2137 50.3238C42.094 50.2304 51.6573 40.5026 51.564 28.6018C51.5251 23.5627 49.7524 18.9364 46.829 15.2914V15.2992Z" fill="white"/>
<path d="M2.22357 26.4911C2.25467 26.1329 2.54235 25.907 2.8689 25.9304C3.19546 25.9537 3.44426 26.2263 3.41316 26.5924C3.38206 26.9507 3.09438 27.1765 2.76783 27.1532C2.44127 27.1298 2.19247 26.8572 2.22357 26.4911Z" fill="white"/>
<path d="M2.50348 24.2714C2.56568 23.9131 2.86891 23.7106 3.18769 23.7651C3.50646 23.8197 3.73194 24.1078 3.67752 24.4661C3.61532 24.8244 3.31209 25.0269 2.99331 24.9724C2.67453 24.9178 2.44905 24.6297 2.50348 24.2714Z" fill="white"/>
<path d="M2.97012 22.0673C3.05565 21.7168 3.37442 21.5377 3.6932 21.6155C4.01197 21.6934 4.21413 21.9972 4.12083 22.3554C4.0353 22.7059 3.71653 22.8851 3.39775 22.8072C3.07898 22.7293 2.87682 22.4255 2.97012 22.0673Z" fill="white"/>
<path d="M3.6 19.9177C3.71662 19.575 4.05095 19.427 4.36195 19.5283C4.67295 19.6295 4.84401 19.9566 4.73516 20.2993C4.62631 20.642 4.2842 20.79 3.9732 20.6888C3.6622 20.5875 3.49115 20.2604 3.6 19.9177Z" fill="white"/>
<path d="M4.40839 17.8227C4.54834 17.4878 4.89823 17.3709 5.19368 17.4955C5.48913 17.6202 5.64463 17.9629 5.4969 18.29C5.35695 18.6249 5.00707 18.7417 4.71162 18.6171C4.40839 18.4847 4.26067 18.1498 4.40839 17.8227Z" fill="white"/>
<path d="M5.38008 15.7976C5.55113 15.4783 5.90102 15.3849 6.18869 15.5328C6.47637 15.6886 6.60077 16.0313 6.42972 16.3506C6.25867 16.6699 5.90879 16.7634 5.62112 16.6154C5.33344 16.4597 5.20903 16.117 5.38008 15.7976Z" fill="white"/>
<path d="M6.50795 13.8739C6.70232 13.5702 7.05997 13.5001 7.33987 13.6792C7.61977 13.8583 7.7053 14.2088 7.51092 14.5126C7.31655 14.8163 6.9589 14.8864 6.679 14.7073C6.40687 14.5359 6.31357 14.1777 6.50795 13.8739Z" fill="white"/>
<path d="M7.7908 12.028C8.0085 11.7398 8.37393 11.7009 8.63051 11.8956C8.88708 12.0903 8.95706 12.4564 8.73936 12.7446C8.52166 13.0327 8.15623 13.0717 7.89965 12.877C7.64307 12.6822 7.5731 12.3162 7.7908 12.028Z" fill="white"/>
<path d="M9.21328 10.299C9.45431 10.0264 9.81973 10.0186 10.0608 10.2367C10.3018 10.4548 10.3407 10.8208 10.0996 11.0934C9.85861 11.366 9.49319 11.3738 9.25216 11.1557C9.01113 10.9376 8.97226 10.5716 9.21328 10.299Z" fill="white"/>
<path d="M10.7684 8.68681C11.0328 8.43758 11.3982 8.46095 11.6237 8.68681C11.8492 8.92047 11.8569 9.28652 11.5926 9.54354C11.3282 9.79277 10.9628 9.76941 10.7373 9.54354C10.5119 9.31768 10.5041 8.94383 10.7684 8.68681Z" fill="white"/>
<path d="M52.1705 12.0124C52.3882 12.3006 52.326 12.6589 52.0694 12.8614C51.8128 13.0639 51.4474 13.0249 51.2297 12.7367C51.012 12.4486 51.0742 12.0903 51.3308 11.8878C51.5874 11.6853 51.9528 11.7242 52.1783 12.0124H52.1705Z" fill="white"/>
<path d="M53.4536 13.8584C53.6479 14.1621 53.5624 14.5204 53.2825 14.6995C53.0104 14.8787 52.645 14.8164 52.4506 14.5126C52.2562 14.2089 52.3417 13.8506 52.6216 13.6715C52.8938 13.4923 53.2592 13.5546 53.4536 13.8584Z" fill="white"/>
<path d="M54.5885 15.7899C54.7596 16.1092 54.6429 16.4597 54.3553 16.6077C54.0676 16.7634 53.7099 16.67 53.5389 16.3506C53.3678 16.0313 53.4845 15.6808 53.7721 15.5329C54.0598 15.3771 54.4175 15.4705 54.5885 15.7899Z" fill="white"/>
<path d="M55.5603 17.8226C55.7081 18.1575 55.5603 18.4924 55.2571 18.6248C54.9617 18.7572 54.6118 18.6326 54.4641 18.3055C54.3163 17.9784 54.4641 17.6357 54.7673 17.5033C55.0627 17.3709 55.4126 17.4955 55.5603 17.8226Z" fill="white"/>
<path d="M56.369 19.9177C56.4856 20.2604 56.3146 20.5875 56.0036 20.6887C55.6926 20.7978 55.3583 20.6498 55.2416 20.3071C55.125 19.9644 55.2961 19.6373 55.6071 19.536C55.9181 19.427 56.2524 19.575 56.369 19.9177Z" fill="white"/>
<path d="M57.0065 22.083C57.0998 22.4334 56.8977 22.745 56.5789 22.8229C56.2601 22.9007 55.9414 22.7294 55.8481 22.3789C55.7548 22.0284 55.9569 21.7169 56.2757 21.639C56.5945 21.5611 56.9132 21.7325 57.0065 22.083Z" fill="white"/>
<path d="M57.4656 24.2792C57.5278 24.6375 57.3023 24.9256 56.9836 24.9802C56.6648 25.0347 56.3538 24.8322 56.2916 24.4739C56.2294 24.1157 56.4549 23.8275 56.7736 23.773C57.0924 23.7184 57.4034 23.9209 57.4656 24.2792Z" fill="white"/>
<path d="M57.7455 26.5146C57.7766 26.8728 57.5278 27.1454 57.209 27.1766C56.8824 27.2077 56.5948 26.9819 56.5637 26.6158C56.5326 26.2575 56.7814 25.9849 57.1001 25.9538C57.4267 25.9226 57.7144 26.1485 57.7455 26.5146Z" fill="white"/>
<path d="M12.4634 7.22251C12.7433 6.98886 13.1087 7.04338 13.3109 7.29261C13.5208 7.54184 13.4975 7.90789 13.2176 8.14155C12.9377 8.3752 12.5723 8.32068 12.3701 8.07145C12.1602 7.82222 12.1835 7.45616 12.4634 7.22251Z" fill="white"/>
<path d="M14.2438 5.87515C14.5392 5.66486 14.8969 5.75053 15.0835 6.01534C15.2701 6.28015 15.2234 6.6462 14.9202 6.85649C14.6247 7.06678 14.2671 6.98111 14.0805 6.7163C13.8939 6.45149 13.9405 6.08543 14.2438 5.87515Z" fill="white"/>
<path d="M16.1408 4.6757C16.4518 4.49657 16.8016 4.59782 16.9649 4.88599C17.1282 5.16638 17.0504 5.52464 16.7394 5.71157C16.4284 5.8907 16.0786 5.78945 15.9153 5.50128C15.752 5.22089 15.8298 4.86263 16.1408 4.6757Z" fill="white"/>
<path d="M18.1238 3.63202C18.4503 3.47625 18.7924 3.60865 18.9324 3.90461C19.0723 4.20057 18.9635 4.55105 18.6369 4.70682C18.3104 4.86259 17.9683 4.73019 17.8283 4.43423C17.6884 4.13827 17.7972 3.78779 18.1238 3.63202Z" fill="white"/>
<path d="M20.1919 2.75193C20.534 2.61952 20.8605 2.78308 20.9772 3.09462C21.0938 3.40616 20.9538 3.74106 20.6195 3.87346C20.2852 4.00587 19.9508 3.84231 19.8342 3.53856C19.7176 3.23481 19.8575 2.89212 20.1919 2.75971V2.75193Z" fill="white"/>
<path d="M22.3144 2.04327C22.6643 1.94202 22.9753 2.12894 23.0686 2.44048C23.1619 2.75202 22.9986 3.07913 22.6487 3.18817C22.2988 3.29721 21.9878 3.1025 21.8945 2.79096C21.8012 2.47942 21.9645 2.1523 22.3144 2.04327Z" fill="white"/>
<path d="M24.4836 1.50581C24.8412 1.43571 25.1367 1.646 25.1989 1.96533C25.2611 2.28465 25.0745 2.59619 24.7246 2.67408C24.3669 2.74417 24.0715 2.53388 24.0093 2.21456C23.9393 1.89523 24.1337 1.58369 24.4836 1.50581Z" fill="white"/>
<path d="M26.692 1.14752C27.0496 1.10079 27.3295 1.34224 27.3684 1.66156C27.4073 1.98868 27.1973 2.28464 26.8319 2.33137C26.4743 2.3781 26.1944 2.13666 26.1555 1.81733C26.1166 1.49022 26.3265 1.19426 26.6842 1.14752H26.692Z" fill="white"/>
<path d="M28.931 0.968446C29.2964 0.952869 29.553 1.20989 29.5686 1.537C29.5841 1.86412 29.3431 2.1445 28.9854 2.16008C28.62 2.17566 28.3634 1.91864 28.3479 1.59152C28.3323 1.26441 28.5734 0.984023 28.931 0.968446Z" fill="white"/>
<path d="M31.1624 0.968434C31.5279 0.984011 31.7611 1.25661 31.7533 1.58372C31.7378 1.91084 31.4812 2.16786 31.1236 2.16007C30.7581 2.14449 30.5249 1.87189 30.5327 1.54478C30.5404 1.21766 30.8048 0.960646 31.1624 0.968434Z" fill="white"/>
<path d="M33.3938 1.15533C33.7515 1.20206 33.9691 1.49802 33.9303 1.82514C33.8914 2.15225 33.6115 2.3937 33.2538 2.34697C32.8962 2.30802 32.6785 2.00427 32.7174 1.67716C32.7562 1.35004 33.0361 1.1086 33.3938 1.15533Z" fill="white"/>
<path d="M35.6097 1.51363C35.9673 1.58373 36.1539 1.90306 36.0917 2.22238C36.0295 2.54171 35.7263 2.75979 35.3764 2.68969C35.0188 2.61959 34.8322 2.30027 34.8944 1.98094C34.9566 1.66161 35.2598 1.44354 35.6097 1.51363Z" fill="white"/>
<path d="M37.7946 2.05103C38.1445 2.15228 38.3078 2.47939 38.2223 2.79872C38.129 3.11805 37.8179 3.30497 37.4681 3.20372C37.1182 3.10247 36.9549 2.77536 37.0404 2.45603C37.1337 2.1367 37.4447 1.94978 37.7946 2.05103Z" fill="white"/>
<path d="M39.9248 2.76754C40.2669 2.89215 40.4069 3.23484 40.2902 3.54638C40.1736 3.85013 39.8471 4.02148 39.505 3.88907C39.1629 3.75667 39.0229 3.42177 39.1395 3.11023C39.2562 2.80648 39.5827 2.63513 39.9248 2.76754Z" fill="white"/>
<path d="M42.0007 3.65538C42.3272 3.81115 42.4361 4.16163 42.2961 4.45759C42.1562 4.75355 41.8141 4.89374 41.4875 4.73797C41.161 4.58221 41.0521 4.23173 41.1921 3.93576C41.332 3.6398 41.6741 3.49961 42.0007 3.65538Z" fill="white"/>
<path d="M43.9132 4.66793C44.232 4.84707 44.3097 5.21312 44.1464 5.49351C43.9831 5.78168 43.6333 5.89072 43.3145 5.7038C42.9957 5.51687 42.918 5.15861 43.0812 4.87822C43.2445 4.59005 43.5944 4.48101 43.9132 4.66793Z" fill="white"/>
<path d="M45.7874 5.84396C46.0906 6.05424 46.1373 6.41251 45.9507 6.68511C45.7641 6.95771 45.4064 7.03559 45.1032 6.83309C44.8 6.6228 44.7533 6.26453 44.9321 5.99194C45.1187 5.71934 45.4764 5.64146 45.7796 5.84396H45.7874Z" fill="white"/>
<path d="M47.529 7.15246C47.8089 7.38612 47.8323 7.75217 47.6301 8.00919C47.4202 8.26621 47.0625 8.31294 46.7749 8.08708C46.495 7.85342 46.4716 7.48737 46.6738 7.23035C46.8837 6.97333 47.2414 6.9266 47.529 7.15246Z" fill="white"/>
<path d="M49.2083 8.64C49.4727 8.88923 49.4649 9.26307 49.2394 9.49673C49.0139 9.73038 48.6485 9.76153 48.3842 9.50452C48.1198 9.25529 48.1276 8.88144 48.3531 8.64779C48.5785 8.40634 48.944 8.38298 49.2083 8.64Z" fill="white"/>
<path d="M50.779 10.26C51.0201 10.5326 50.989 10.8987 50.7402 11.1168C50.4991 11.3348 50.1259 11.3271 49.8849 11.0545C49.6439 10.7819 49.675 10.4158 49.9238 10.1977C50.1726 9.97966 50.538 9.98745 50.779 10.26Z" fill="white"/>
</g>
<defs>
<clipPath id="clip0_1294_4044">
<rect width="60" height="60" fill="white"/>
</clipPath>
</defs>
</svg>
